<mxfile host="Electron" agent="Mozilla/5.0 (Windows NT 10.0; Win64; x64) AppleWebKit/537.36 (KHTML, like Gecko) draw.io/26.2.15 Chrome/134.0.6998.205 Electron/35.2.1 Safari/537.36" version="26.2.15">
  <diagram name="Page-1" id="lgXqQRMpxAXaZnCEcmWw">
    <mxGraphModel dx="1426" dy="841" grid="1" gridSize="10" guides="1" tooltips="1" connect="1" arrows="1" fold="1" page="1" pageScale="1" pageWidth="827" pageHeight="1169" math="0" shadow="0">
      <root>
        <mxCell id="0" />
        <mxCell id="1" parent="0" />
        <mxCell id="B-_9wt91SfU6WhhBpVsq-2" value="&lt;font style=&quot;font-size: 32px;&quot;&gt;High Level Architecture&lt;/font&gt;" style="text;html=1;align=center;verticalAlign=middle;whiteSpace=wrap;rounded=0;" vertex="1" parent="1">
          <mxGeometry x="10" y="20" width="400" height="60" as="geometry" />
        </mxCell>
        <mxCell id="B-_9wt91SfU6WhhBpVsq-1" value="" style="rounded=0;whiteSpace=wrap;html=1;dashed=1;fillColor=none;strokeColor=#989898;" vertex="1" parent="1">
          <mxGeometry x="10" y="240" width="130" height="520" as="geometry" />
        </mxCell>
        <mxCell id="B-_9wt91SfU6WhhBpVsq-3" value="&lt;font style=&quot;color: rgb(14, 14, 14);&quot;&gt;Scoures&lt;/font&gt;" style="rounded=0;whiteSpace=wrap;html=1;strokeColor=none;fillColor=#FFFDFD;textShadow=0;" vertex="1" parent="1">
          <mxGeometry x="25" y="220" width="100" height="40" as="geometry" />
        </mxCell>
        <mxCell id="B-_9wt91SfU6WhhBpVsq-5" value="" style="rounded=0;whiteSpace=wrap;html=1;dashed=1;fillColor=none;strokeColor=#989898;" vertex="1" parent="1">
          <mxGeometry x="197" y="240" width="630" height="520" as="geometry" />
        </mxCell>
        <mxCell id="B-_9wt91SfU6WhhBpVsq-6" value="&lt;font style=&quot;font-size: 14px;&quot; color=&quot;#0e0e0e&quot;&gt;Data WareHouse&lt;/font&gt;" style="rounded=0;whiteSpace=wrap;html=1;strokeColor=none;fillColor=#FFFDFD;textShadow=0;" vertex="1" parent="1">
          <mxGeometry x="390" y="220" width="210" height="40" as="geometry" />
        </mxCell>
        <mxCell id="B-_9wt91SfU6WhhBpVsq-7" value="" style="rounded=0;whiteSpace=wrap;html=1;dashed=1;fillColor=none;strokeColor=#989898;" vertex="1" parent="1">
          <mxGeometry x="900" y="240" width="130" height="520" as="geometry" />
        </mxCell>
        <mxCell id="B-_9wt91SfU6WhhBpVsq-9" value="&lt;font style=&quot;color: rgb(14, 14, 14);&quot;&gt;Consume&lt;/font&gt;" style="rounded=0;whiteSpace=wrap;html=1;strokeColor=none;fillColor=#FFFDFD;textShadow=0;" vertex="1" parent="1">
          <mxGeometry x="915" y="225" width="100" height="30" as="geometry" />
        </mxCell>
        <mxCell id="B-_9wt91SfU6WhhBpVsq-11" value="&lt;b&gt;&lt;font style=&quot;font-size: 14px;&quot;&gt;Bronze Layer&lt;/font&gt;&lt;/b&gt;" style="rounded=0;whiteSpace=wrap;html=1;fillColor=#9A8469;fontColor=#000000;strokeColor=#F1CF78;" vertex="1" parent="1">
          <mxGeometry x="270" y="280" width="140" height="30" as="geometry" />
        </mxCell>
        <mxCell id="B-_9wt91SfU6WhhBpVsq-12" value="" style="rounded=0;whiteSpace=wrap;html=1;fillColor=none;strokeColor=#F1CF78;" vertex="1" parent="1">
          <mxGeometry x="270" y="320" width="140" height="420" as="geometry" />
        </mxCell>
        <mxCell id="B-_9wt91SfU6WhhBpVsq-13" value="&lt;b&gt;&lt;font style=&quot;font-size: 14px;&quot;&gt;Bronze Layer&lt;/font&gt;&lt;/b&gt;" style="rounded=0;whiteSpace=wrap;html=1;fillColor=#989898;fontColor=#000000;strokeColor=#B3B3B3;" vertex="1" parent="1">
          <mxGeometry x="450" y="280" width="140" height="30" as="geometry" />
        </mxCell>
        <mxCell id="B-_9wt91SfU6WhhBpVsq-14" value="" style="rounded=0;whiteSpace=wrap;html=1;fillColor=none;strokeColor=#B3B3B3;" vertex="1" parent="1">
          <mxGeometry x="450" y="320" width="140" height="420" as="geometry" />
        </mxCell>
        <mxCell id="B-_9wt91SfU6WhhBpVsq-15" value="&lt;b&gt;&lt;font style=&quot;font-size: 14px;&quot;&gt;Bronze Layer&lt;/font&gt;&lt;/b&gt;" style="rounded=0;whiteSpace=wrap;html=1;fillColor=#e3c800;fontColor=#000000;strokeColor=#5B4D00;" vertex="1" parent="1">
          <mxGeometry x="630" y="280" width="140" height="30" as="geometry" />
        </mxCell>
        <mxCell id="B-_9wt91SfU6WhhBpVsq-16" value="" style="rounded=0;whiteSpace=wrap;html=1;fillColor=none;strokeColor=#E9C600;" vertex="1" parent="1">
          <mxGeometry x="630" y="320" width="140" height="420" as="geometry" />
        </mxCell>
        <mxCell id="B-_9wt91SfU6WhhBpVsq-17" value="CRM" style="image;aspect=fixed;html=1;points=[];align=center;fontSize=12;image=img/lib/azure2/general/Folder_Blank.svg;" vertex="1" parent="1">
          <mxGeometry x="38.04" y="330" width="73.93" height="60" as="geometry" />
        </mxCell>
        <mxCell id="B-_9wt91SfU6WhhBpVsq-18" value="" style="image;aspect=fixed;html=1;points=[];align=center;fontSize=12;image=img/lib/azure2/general/File.svg;" vertex="1" parent="1">
          <mxGeometry x="92.54" y="360" width="32.46" height="40" as="geometry" />
        </mxCell>
        <mxCell id="B-_9wt91SfU6WhhBpVsq-19" value="ERP" style="image;aspect=fixed;html=1;points=[];align=center;fontSize=12;image=img/lib/azure2/general/Folder_Blank.svg;" vertex="1" parent="1">
          <mxGeometry x="31.52" y="470" width="73.93" height="60" as="geometry" />
        </mxCell>
        <mxCell id="B-_9wt91SfU6WhhBpVsq-20" value="" style="image;aspect=fixed;html=1;points=[];align=center;fontSize=12;image=img/lib/azure2/general/File.svg;" vertex="1" parent="1">
          <mxGeometry x="84.42" y="500" width="32.46" height="40" as="geometry" />
        </mxCell>
        <mxCell id="B-_9wt91SfU6WhhBpVsq-23" value="" style="endArrow=none;html=1;rounded=0;" edge="1" parent="1">
          <mxGeometry width="50" height="50" relative="1" as="geometry">
            <mxPoint x="20" y="570" as="sourcePoint" />
            <mxPoint x="130" y="570" as="targetPoint" />
            <Array as="points">
              <mxPoint x="70" y="570" />
            </Array>
          </mxGeometry>
        </mxCell>
        <mxCell id="B-_9wt91SfU6WhhBpVsq-24" value="&lt;b&gt;Object Type:&lt;/b&gt; CSV File&lt;div&gt;&lt;b&gt;Interface&lt;/b&gt;: Files in Folders&lt;/div&gt;" style="text;html=1;align=center;verticalAlign=middle;whiteSpace=wrap;rounded=0;" vertex="1" parent="1">
          <mxGeometry x="24.42" y="585" width="105.58" height="125" as="geometry" />
        </mxCell>
        <mxCell id="B-_9wt91SfU6WhhBpVsq-25" value="" style="html=1;verticalLabelPosition=bottom;align=center;labelBackgroundColor=#ffffff;verticalAlign=top;strokeWidth=2;strokeColor=#F1CF78;shadow=0;dashed=0;shape=mxgraph.ios7.icons.data;fillColor=#9A8469;" vertex="1" parent="1">
          <mxGeometry x="310" y="330" width="60" height="80" as="geometry" />
        </mxCell>
        <mxCell id="B-_9wt91SfU6WhhBpVsq-26" value="" style="html=1;verticalLabelPosition=bottom;align=center;labelBackgroundColor=#ffffff;verticalAlign=top;strokeWidth=2;strokeColor=#808080;shadow=0;dashed=0;shape=mxgraph.ios7.icons.data;fillColor=#989898;" vertex="1" parent="1">
          <mxGeometry x="490" y="330" width="60" height="80" as="geometry" />
        </mxCell>
        <mxCell id="B-_9wt91SfU6WhhBpVsq-27" value="" style="html=1;verticalLabelPosition=bottom;align=center;labelBackgroundColor=#ffffff;verticalAlign=top;strokeWidth=2;strokeColor=#F7FF12;shadow=0;dashed=0;shape=mxgraph.ios7.icons.data;fillColor=#E9C600;" vertex="1" parent="1">
          <mxGeometry x="670" y="330" width="60" height="80" as="geometry" />
        </mxCell>
        <mxCell id="B-_9wt91SfU6WhhBpVsq-29" value="" style="shape=flexArrow;endArrow=classic;html=1;rounded=0;endWidth=18;endSize=10;fillColor=#09A246;width=10;exitX=1.015;exitY=0.554;exitDx=0;exitDy=0;exitPerimeter=0;" edge="1" parent="1">
          <mxGeometry width="50" height="50" relative="1" as="geometry">
            <mxPoint x="140.00000000000006" y="419.99999999999994" as="sourcePoint" />
            <mxPoint x="218.05" y="420.92" as="targetPoint" />
            <Array as="points">
              <mxPoint x="178.05" y="421.92" />
            </Array>
          </mxGeometry>
        </mxCell>
        <mxCell id="B-_9wt91SfU6WhhBpVsq-30" value="" style="shape=flexArrow;endArrow=classic;html=1;rounded=0;endWidth=18;endSize=10;fillColor=#09A246;width=10;" edge="1" parent="1">
          <mxGeometry width="50" height="50" relative="1" as="geometry">
            <mxPoint x="400" y="420" as="sourcePoint" />
            <mxPoint x="460" y="420" as="targetPoint" />
          </mxGeometry>
        </mxCell>
        <mxCell id="B-_9wt91SfU6WhhBpVsq-31" value="" style="shape=flexArrow;endArrow=classic;html=1;rounded=0;endWidth=18;endSize=10;fillColor=#09A246;width=10;" edge="1" parent="1">
          <mxGeometry width="50" height="50" relative="1" as="geometry">
            <mxPoint x="580" y="420" as="sourcePoint" />
            <mxPoint x="640" y="420" as="targetPoint" />
          </mxGeometry>
        </mxCell>
        <mxCell id="B-_9wt91SfU6WhhBpVsq-32" value="" style="shape=flexArrow;endArrow=classic;html=1;rounded=0;endWidth=20;endSize=9.33;fillColor=#09A246;width=10;exitX=1.005;exitY=0.519;exitDx=0;exitDy=0;exitPerimeter=0;" edge="1" parent="1">
          <mxGeometry width="50" height="50" relative="1" as="geometry">
            <mxPoint x="820.1500000000001" y="420.0000000000001" as="sourcePoint" />
            <mxPoint x="900" y="420.12" as="targetPoint" />
          </mxGeometry>
        </mxCell>
        <mxCell id="B-_9wt91SfU6WhhBpVsq-33" value="&lt;b&gt;&lt;font style=&quot;font-size: 13px;&quot;&gt;Row Data&lt;/font&gt;&lt;/b&gt;" style="text;html=1;align=center;verticalAlign=middle;whiteSpace=wrap;rounded=0;" vertex="1" parent="1">
          <mxGeometry x="300" y="420" width="80" height="30" as="geometry" />
        </mxCell>
        <mxCell id="B-_9wt91SfU6WhhBpVsq-34" value="&lt;b&gt;&lt;font style=&quot;font-size: 13px;&quot;&gt;Cleaned, Standardized Data&lt;/font&gt;&lt;/b&gt;" style="text;html=1;align=left;verticalAlign=middle;whiteSpace=wrap;rounded=0;" vertex="1" parent="1">
          <mxGeometry x="472" y="410" width="108" height="50" as="geometry" />
        </mxCell>
        <mxCell id="B-_9wt91SfU6WhhBpVsq-35" value="&lt;b&gt;&lt;font style=&quot;font-size: 13px;&quot;&gt;Business-Ready Data&lt;/font&gt;&lt;/b&gt;" style="text;html=1;align=left;verticalAlign=middle;whiteSpace=wrap;rounded=0;" vertex="1" parent="1">
          <mxGeometry x="646" y="410" width="108" height="50" as="geometry" />
        </mxCell>
        <mxCell id="B-_9wt91SfU6WhhBpVsq-36" value="" style="endArrow=none;html=1;rounded=0;strokeColor=#9A8469;" edge="1" parent="1">
          <mxGeometry width="50" height="50" relative="1" as="geometry">
            <mxPoint x="285" y="470" as="sourcePoint" />
            <mxPoint x="395" y="470" as="targetPoint" />
            <Array as="points">
              <mxPoint x="335" y="470" />
            </Array>
          </mxGeometry>
        </mxCell>
        <mxCell id="B-_9wt91SfU6WhhBpVsq-37" value="" style="endArrow=none;html=1;rounded=0;strokeColor=#989898;" edge="1" parent="1">
          <mxGeometry width="50" height="50" relative="1" as="geometry">
            <mxPoint x="457" y="470" as="sourcePoint" />
            <mxPoint x="567" y="470" as="targetPoint" />
            <Array as="points">
              <mxPoint x="507" y="470" />
            </Array>
          </mxGeometry>
        </mxCell>
        <mxCell id="B-_9wt91SfU6WhhBpVsq-38" value="" style="endArrow=none;html=1;rounded=0;strokeColor=#F7FF12;" edge="1" parent="1">
          <mxGeometry width="50" height="50" relative="1" as="geometry">
            <mxPoint x="644" y="470" as="sourcePoint" />
            <mxPoint x="754" y="470" as="targetPoint" />
            <Array as="points">
              <mxPoint x="694" y="470" />
            </Array>
          </mxGeometry>
        </mxCell>
        <mxCell id="B-_9wt91SfU6WhhBpVsq-39" value="Object Type: Table&lt;div&gt;&lt;span style=&quot;background-color: transparent; color: light-dark(rgb(0, 0, 0), rgb(255, 255, 255));&quot;&gt;Load:&amp;nbsp; &amp;nbsp; &amp;nbsp; &amp;nbsp; &amp;nbsp; &amp;nbsp; &amp;nbsp; &amp;nbsp; &amp;nbsp; &amp;nbsp;&lt;/span&gt;&lt;div&gt;&amp;nbsp; &amp;nbsp; &amp;nbsp; &amp;nbsp; &amp;nbsp; &amp;gt; Batch Processing&lt;/div&gt;&lt;/div&gt;&lt;div&gt;&amp;nbsp; &amp;nbsp; &amp;nbsp; &amp;nbsp; &amp;nbsp;&amp;gt;Full Load(Trunc &amp;amp;&amp;nbsp;&lt;/div&gt;&lt;div&gt;insert)&lt;/div&gt;&lt;div&gt;No Transformation&amp;nbsp;&amp;nbsp;&lt;/div&gt;&lt;div&gt;Data Model: None&amp;nbsp;&lt;/div&gt;" style="text;html=1;align=center;verticalAlign=middle;whiteSpace=wrap;rounded=0;" vertex="1" parent="1">
          <mxGeometry x="260" y="510" width="140" height="82.5" as="geometry" />
        </mxCell>
        <mxCell id="B-_9wt91SfU6WhhBpVsq-41" value="&lt;font style=&quot;color: rgb(246, 246, 246);&quot;&gt;&lt;b style=&quot;&quot;&gt;Object Type&lt;/b&gt;&lt;/font&gt;: Table" style="text;html=1;align=center;verticalAlign=middle;whiteSpace=wrap;rounded=0;" vertex="1" parent="1">
          <mxGeometry x="430" y="480" width="160" height="30" as="geometry" />
        </mxCell>
        <mxCell id="B-_9wt91SfU6WhhBpVsq-42" value="&lt;b&gt;&lt;font style=&quot;font-size: 14px;&quot;&gt;Load&lt;/font&gt;&lt;/b&gt;:" style="text;html=1;align=center;verticalAlign=middle;whiteSpace=wrap;rounded=0;" vertex="1" parent="1">
          <mxGeometry x="450" y="500" width="60" height="30" as="geometry" />
        </mxCell>
        <mxCell id="B-_9wt91SfU6WhhBpVsq-43" value="&amp;gt;Batch Processing&lt;div&gt;&amp;gt;Full Load&amp;nbsp; &amp;nbsp; &amp;nbsp; &amp;nbsp; &amp;nbsp; &amp;nbsp; &amp;nbsp;&lt;/div&gt;&lt;div&gt;&amp;gt;Truncate &amp;amp; insert&amp;nbsp;&lt;/div&gt;" style="text;html=1;align=center;verticalAlign=middle;whiteSpace=wrap;rounded=0;" vertex="1" parent="1">
          <mxGeometry x="465" y="523.12" width="125" height="56.25" as="geometry" />
        </mxCell>
        <mxCell id="B-_9wt91SfU6WhhBpVsq-44" value="&lt;b&gt;Transformation&lt;/b&gt;:" style="text;html=1;align=center;verticalAlign=middle;whiteSpace=wrap;rounded=0;fontSize=14;" vertex="1" parent="1">
          <mxGeometry x="425" y="560" width="165" height="45" as="geometry" />
        </mxCell>
        <mxCell id="B-_9wt91SfU6WhhBpVsq-45" value="&amp;nbsp;&amp;gt;Data Cleansing&amp;nbsp; &amp;nbsp; &amp;nbsp; &amp;nbsp; &amp;nbsp; &amp;nbsp; &amp;nbsp; &amp;nbsp;&amp;gt;Data Standrization&amp;nbsp; &amp;nbsp; &amp;nbsp; &amp;nbsp; &amp;nbsp;&amp;gt;Data Normalization&amp;nbsp; &amp;nbsp; &amp;nbsp; &amp;nbsp; &amp;gt;Derived Columns&amp;nbsp; &amp;nbsp; &amp;nbsp; &amp;nbsp; &amp;nbsp; &amp;nbsp; &amp;gt;Data Enrichment&amp;nbsp; &amp;nbsp; &amp;nbsp; &amp;nbsp; &amp;nbsp; &amp;nbsp;&amp;nbsp;&lt;div&gt;&amp;nbsp;&amp;nbsp; &amp;nbsp; &amp;nbsp; &amp;nbsp;&amp;nbsp;&lt;/div&gt;" style="text;html=1;align=center;verticalAlign=middle;whiteSpace=wrap;rounded=0;" vertex="1" parent="1">
          <mxGeometry x="472" y="600" width="140" height="77.5" as="geometry" />
        </mxCell>
        <mxCell id="B-_9wt91SfU6WhhBpVsq-46" value="&lt;b&gt;Data Model: None&lt;/b&gt;" style="text;html=1;align=left;verticalAlign=middle;whiteSpace=wrap;rounded=0;" vertex="1" parent="1">
          <mxGeometry x="452.5" y="680" width="110" height="30" as="geometry" />
        </mxCell>
        <mxCell id="B-_9wt91SfU6WhhBpVsq-47" value="&lt;font style=&quot;&quot;&gt;&lt;b style=&quot;font-size: 14px;&quot;&gt;Object Type: &lt;/b&gt;&lt;font&gt;Views&lt;/font&gt;&lt;/font&gt;" style="text;html=1;align=center;verticalAlign=middle;whiteSpace=wrap;rounded=0;" vertex="1" parent="1">
          <mxGeometry x="612" y="470" width="170" height="50" as="geometry" />
        </mxCell>
        <mxCell id="B-_9wt91SfU6WhhBpVsq-48" value="No &lt;b&gt;Load&lt;/b&gt;" style="text;html=1;align=center;verticalAlign=middle;whiteSpace=wrap;rounded=0;" vertex="1" parent="1">
          <mxGeometry x="600" y="510" width="120" height="30" as="geometry" />
        </mxCell>
        <mxCell id="B-_9wt91SfU6WhhBpVsq-49" value="&lt;b&gt;&lt;font style=&quot;font-size: 14px;&quot;&gt;Transformation:&lt;/font&gt;&lt;/b&gt;" style="text;html=1;align=center;verticalAlign=middle;whiteSpace=wrap;rounded=0;" vertex="1" parent="1">
          <mxGeometry x="630" y="530" width="120" height="40" as="geometry" />
        </mxCell>
        <mxCell id="B-_9wt91SfU6WhhBpVsq-50" value="&amp;gt;Data Intergrations&lt;div&gt;&amp;gt;Aggregations&amp;nbsp; &amp;nbsp; &amp;nbsp; &amp;nbsp;&lt;/div&gt;&lt;div&gt;&amp;gt;Business Logics&amp;nbsp;&amp;nbsp;&lt;/div&gt;" style="text;html=1;align=center;verticalAlign=middle;whiteSpace=wrap;rounded=0;" vertex="1" parent="1">
          <mxGeometry x="640" y="555" width="130" height="55" as="geometry" />
        </mxCell>
        <mxCell id="B-_9wt91SfU6WhhBpVsq-51" value="&lt;b&gt;&lt;font style=&quot;font-size: 14px;&quot;&gt;Data Model:&lt;/font&gt;&lt;/b&gt;" style="text;html=1;align=center;verticalAlign=middle;whiteSpace=wrap;rounded=0;" vertex="1" parent="1">
          <mxGeometry x="620" y="620" width="110" height="26.25" as="geometry" />
        </mxCell>
        <mxCell id="B-_9wt91SfU6WhhBpVsq-52" value="&amp;gt;Star Schema&amp;nbsp; &amp;nbsp; &amp;nbsp; &amp;nbsp; &amp;nbsp; &amp;nbsp;&amp;nbsp;&lt;div&gt;&amp;gt;Flat Table&amp;nbsp; &amp;nbsp; &amp;nbsp; &amp;nbsp; &amp;nbsp; &amp;nbsp; &amp;nbsp; &amp;nbsp; &amp;nbsp;&lt;/div&gt;&lt;div&gt;&amp;gt;Aggregated Table&amp;nbsp; &amp;nbsp;&amp;nbsp;&lt;/div&gt;" style="text;html=1;align=center;verticalAlign=middle;whiteSpace=wrap;rounded=0;" vertex="1" parent="1">
          <mxGeometry x="650" y="630" width="136" height="80" as="geometry" />
        </mxCell>
        <mxCell id="B-_9wt91SfU6WhhBpVsq-53" value="BI &amp;amp; Reporting" style="text;html=1;align=center;verticalAlign=middle;whiteSpace=wrap;rounded=0;fontStyle=1;fontSize=13;" vertex="1" parent="1">
          <mxGeometry x="905" y="350" width="120" height="50" as="geometry" />
        </mxCell>
        <mxCell id="B-_9wt91SfU6WhhBpVsq-54" value="Ad-Hoc&lt;div&gt;SQL Queries&lt;span style=&quot;color: rgba(0, 0, 0, 0); font-family: monospace; font-size: 0px; font-weight: 400; text-align: start; text-wrap-mode: nowrap; background-color: transparent;&quot;&gt;%3CmxGraphModel%3E%3Croot%3E%3CmxCell%20id%3D%220%22%2F%3E%3CmxCell%20id%3D%221%22%20parent%3D%220%22%2F%3E%3CmxCell%20id%3D%222%22%20value%3D%22BI%20%26amp%3Bamp%3B%20Reporting%22%20style%3D%22text%3Bhtml%3D1%3Balign%3Dcenter%3BverticalAlign%3Dmiddle%3BwhiteSpace%3Dwrap%3Brounded%3D0%3BfontStyle%3D1%3BfontSize%3D13%3B%22%20vertex%3D%221%22%20parent%3D%221%22%3E%3CmxGeometry%20x%3D%22905%22%20y%3D%22350%22%20width%3D%22120%22%20height%3D%2250%22%20as%3D%22geometry%22%2F%3E%3C%2FmxCell%3E%3C%2Froot%3E%3C%2FmxGraphModel%3E&lt;/span&gt;&lt;/div&gt;" style="text;html=1;align=center;verticalAlign=middle;whiteSpace=wrap;rounded=0;fontStyle=1;fontSize=13;" vertex="1" parent="1">
          <mxGeometry x="900" y="490" width="120" height="50" as="geometry" />
        </mxCell>
        <mxCell id="B-_9wt91SfU6WhhBpVsq-55" value="Machine&amp;nbsp;&lt;div&gt;Learning&lt;/div&gt;" style="text;html=1;align=center;verticalAlign=middle;whiteSpace=wrap;rounded=0;fontStyle=1;fontSize=13;" vertex="1" parent="1">
          <mxGeometry x="905" y="670" width="120" height="50" as="geometry" />
        </mxCell>
        <mxCell id="B-_9wt91SfU6WhhBpVsq-56" value="" style="image;aspect=fixed;html=1;points=[];align=center;fontSize=12;image=img/lib/azure2/analytics/Power_BI_Embedded.svg;" vertex="1" parent="1">
          <mxGeometry x="915" y="292" width="51" height="68" as="geometry" />
        </mxCell>
        <mxCell id="B-_9wt91SfU6WhhBpVsq-57" value="" style="sketch=0;points=[[0,0,0],[0.25,0,0],[0.5,0,0],[0.75,0,0],[1,0,0],[0,1,0],[0.25,1,0],[0.5,1,0],[0.75,1,0],[1,1,0],[0,0.25,0],[0,0.5,0],[0,0.75,0],[1,0.25,0],[1,0.5,0],[1,0.75,0]];outlineConnect=0;fontColor=#232F3E;fillColor=#01A88D;strokeColor=#ffffff;dashed=0;verticalLabelPosition=bottom;verticalAlign=top;align=center;html=1;fontSize=12;fontStyle=0;aspect=fixed;shape=mxgraph.aws4.resourceIcon;resIcon=mxgraph.aws4.neuron_ml_sdk;" vertex="1" parent="1">
          <mxGeometry x="926" y="585" width="78" height="78" as="geometry" />
        </mxCell>
        <mxCell id="B-_9wt91SfU6WhhBpVsq-58" value="" style="image;sketch=0;aspect=fixed;html=1;points=[];align=center;fontSize=12;image=img/lib/mscae/SQL_Servers.svg;" vertex="1" parent="1">
          <mxGeometry x="915" y="430" width="40" height="40" as="geometry" />
        </mxCell>
        <mxCell id="B-_9wt91SfU6WhhBpVsq-59" value="" style="sketch=0;outlineConnect=0;fontColor=#232F3E;gradientColor=none;fillColor=#C925D1;strokeColor=none;dashed=0;verticalLabelPosition=bottom;verticalAlign=top;align=center;html=1;fontSize=12;fontStyle=0;aspect=fixed;pointerEvents=1;shape=mxgraph.aws4.rds_sql_server_instance;" vertex="1" parent="1">
          <mxGeometry x="966" y="430" width="38" height="38" as="geometry" />
        </mxCell>
      </root>
    </mxGraphModel>
  </diagram>
</mxfile>
